<?xml version="1.0" encoding="UTF-8" standalone="no"?>
<!DOCTYPE svg PUBLIC "-//W3C//DTD SVG 1.1//EN"
 "http://www.w3.org/Graphics/SVG/1.1/DTD/svg11.dtd">
<!-- Generated by graphviz version 2.26.3 (20100126.1600)
 -->
<!-- Title: systems Pages: 1 -->
<svg width="1390pt" height="1223pt"
 viewBox="0.00 0.00 1389.71 1222.80" xmlns="http://www.w3.org/2000/svg" xmlns:xlink="http://www.w3.org/1999/xlink">
<g id="graph1" class="graph" transform="scale(1 1) rotate(0) translate(4 1218.8)">
<title>systems</title>
<polygon fill="white" stroke="white" points="-4,5 -4,-1218.8 1386.71,-1218.8 1386.71,5 -4,5"/>
<!-- SYSTEM14949 -->
<g id="node1" class="node"><title>SYSTEM14949</title>
<ellipse fill="none" stroke="red" cx="450.38" cy="-595.433" rx="57.8449" ry="18"/>
<text text-anchor="middle" x="450.38" y="-590.333" font-family="Times,serif" font-size="14.00">hunchentoot</text>
</g>
<!-- SYSTEM14950 -->
<g id="node2" class="node"><title>SYSTEM14950</title>
<ellipse fill="none" stroke="black" cx="1168.05" cy="-607.02" rx="38.9965" ry="18"/>
<text text-anchor="middle" x="1168.05" y="-601.92" font-family="Times,serif" font-size="14.00">usocket</text>
</g>
<!-- SYSTEM14949&#45;&gt;SYSTEM14950 -->
<g id="edge2" class="edge"><title>SYSTEM14949&#45;&gt;SYSTEM14950</title>
<path fill="none" stroke="#ff3030" d="M508.502,-596.371C646.119,-598.593 989.952,-604.145 1118.51,-606.22"/>
<polygon fill="#ff3030" stroke="#ff3030" points="1118.78,-609.725 1128.83,-606.387 1118.89,-602.726 1118.78,-609.725"/>
</g>
<!-- SYSTEM14951 -->
<g id="node4" class="node"><title>SYSTEM14951</title>
<ellipse fill="none" stroke="black" cx="1156.89" cy="-675.643" rx="37.8486" ry="18"/>
<text text-anchor="middle" x="1156.89" y="-670.543" font-family="Times,serif" font-size="14.00">chunga</text>
</g>
<!-- SYSTEM14949&#45;&gt;SYSTEM14951 -->
<g id="edge4" class="edge"><title>SYSTEM14949&#45;&gt;SYSTEM14951</title>
<path fill="none" stroke="#ff3030" d="M504.938,-601.627C639.051,-616.853 983.082,-655.91 1109.43,-670.254"/>
<polygon fill="#ff3030" stroke="#ff3030" points="1109.23,-673.754 1119.56,-671.405 1110.02,-666.799 1109.23,-673.754"/>
</g>
<!-- SYSTEM14952 -->
<g id="node6" class="node"><title>SYSTEM14952</title>
<ellipse fill="none" stroke="black" cx="1134.88" cy="-741.588" rx="57.9949" ry="18"/>
<text text-anchor="middle" x="1134.88" y="-736.488" font-family="Times,serif" font-size="14.00">flexi&#45;streams</text>
</g>
<!-- SYSTEM14949&#45;&gt;SYSTEM14952 -->
<g id="edge6" class="edge"><title>SYSTEM14949&#45;&gt;SYSTEM14952</title>
<path fill="none" stroke="#ff3030" d="M498.241,-605.652C620.502,-631.758 944.001,-700.832 1076.76,-729.18"/>
<polygon fill="#ff3030" stroke="#ff3030" points="1076.23,-732.645 1086.75,-731.311 1077.7,-725.8 1076.23,-732.645"/>
</g>
<!-- SYSTEM14953 -->
<g id="node8" class="node"><title>SYSTEM14953</title>
<ellipse fill="none" stroke="black" cx="1102.57" cy="-803.148" rx="46.1459" ry="18"/>
<text text-anchor="middle" x="1102.57" y="-798.048" font-family="Times,serif" font-size="14.00">cl&#45;base64</text>
</g>
<!-- SYSTEM14949&#45;&gt;SYSTEM14953 -->
<g id="edge8" class="edge"><title>SYSTEM14949&#45;&gt;SYSTEM14953</title>
<path fill="none" stroke="#ff3030" d="M491.177,-608.426C606.726,-645.227 935.674,-749.993 1056.94,-788.617"/>
<polygon fill="#ff3030" stroke="#ff3030" points="1056.08,-792.015 1066.67,-791.714 1058.2,-785.345 1056.08,-792.015"/>
</g>
<!-- SYSTEM14954 -->
<g id="node10" class="node"><title>SYSTEM14954</title>
<ellipse fill="none" stroke="black" cx="1010.66" cy="-906.888" rx="31.1972" ry="18"/>
<text text-anchor="middle" x="1010.66" y="-901.788" font-family="Times,serif" font-size="14.00">cl+ssl</text>
</g>
<!-- SYSTEM14949&#45;&gt;SYSTEM14954 -->
<g id="edge10" class="edge"><title>SYSTEM14949&#45;&gt;SYSTEM14954</title>
<path fill="none" stroke="#ff3030" d="M478.935,-611.306C574.096,-664.205 880.003,-834.255 979.251,-889.427"/>
<polygon fill="#ff3030" stroke="#ff3030" points="977.756,-892.6 988.197,-894.399 981.157,-886.482 977.756,-892.6"/>
</g>
<!-- SYSTEM14955 -->
<g id="node12" class="node"><title>SYSTEM14955</title>
<ellipse fill="none" stroke="black" cx="890.636" cy="-976.185" rx="31.9972" ry="18"/>
<text text-anchor="middle" x="890.636" y="-971.085" font-family="Times,serif" font-size="14.00">cl&#45;fad</text>
</g>
<!-- SYSTEM14949&#45;&gt;SYSTEM14955 -->
<g id="edge12" class="edge"><title>SYSTEM14949&#45;&gt;SYSTEM14955</title>
<path fill="none" stroke="#ff3030" d="M470.152,-612.533C541.489,-674.228 785.596,-885.343 865.265,-954.243"/>
<polygon fill="#ff3030" stroke="#ff3030" points="863.024,-956.933 872.877,-960.827 867.603,-951.639 863.024,-956.933"/>
</g>
<!-- SYSTEM14956 -->
<g id="node14" class="node"><title>SYSTEM14956</title>
<ellipse fill="none" stroke="black" cx="823.857" cy="-995.528" rx="70.8437" ry="18"/>
<text text-anchor="middle" x="823.857" y="-990.428" font-family="Times,serif" font-size="14.00">trivial&#45;backtrace</text>
</g>
<!-- SYSTEM14949&#45;&gt;SYSTEM14956 -->
<g id="edge14" class="edge"><title>SYSTEM14949&#45;&gt;SYSTEM14956</title>
<path fill="none" stroke="#ff3030" d="M466.668,-612.882C526,-676.443 730.732,-895.765 800.418,-970.418"/>
<polygon fill="#ff3030" stroke="#ff3030" points="798.101,-973.066 807.484,-977.987 803.218,-968.289 798.101,-973.066"/>
</g>
<!-- SYSTEM14957 -->
<g id="node16" class="node"><title>SYSTEM14957</title>
<ellipse fill="none" stroke="black" cx="754.841" cy="-1003.91" rx="41.0951" ry="18"/>
<text text-anchor="middle" x="754.841" y="-998.808" font-family="Times,serif" font-size="14.00">cl&#45;ppcre</text>
</g>
<!-- SYSTEM14949&#45;&gt;SYSTEM14957 -->
<g id="edge16" class="edge"><title>SYSTEM14949&#45;&gt;SYSTEM14957</title>
<path fill="none" stroke="#ff3030" d="M463.462,-612.984C511.575,-677.534 678.854,-901.961 735.736,-978.276"/>
<polygon fill="#ff3030" stroke="#ff3030" points="733.025,-980.496 741.808,-986.422 738.638,-976.312 733.025,-980.496"/>
</g>
<!-- SYSTEM14958 -->
<g id="node18" class="node"><title>SYSTEM14958</title>
<ellipse fill="none" stroke="black" cx="685.374" cy="-1001.11" rx="76.1919" ry="18"/>
<text text-anchor="middle" x="685.374" y="-996.009" font-family="Times,serif" font-size="14.00">bordeaux&#45;threads</text>
</g>
<!-- SYSTEM14949&#45;&gt;SYSTEM14958 -->
<g id="edge18" class="edge"><title>SYSTEM14949&#45;&gt;SYSTEM14958</title>
<path fill="none" stroke="#ff3030" d="M460.781,-613.388C498.005,-677.649 624.76,-896.469 669.544,-973.781"/>
<polygon fill="#ff3030" stroke="#ff3030" points="666.786,-976.002 674.827,-982.901 672.843,-972.493 666.786,-976.002"/>
</g>
<!-- SYSTEM14959 -->
<g id="node20" class="node"><title>SYSTEM14959</title>
<ellipse fill="none" stroke="black" cx="617.256" cy="-987.202" rx="27.9475" ry="18"/>
<text text-anchor="middle" x="617.256" y="-982.102" font-family="Times,serif" font-size="14.00">md5</text>
</g>
<!-- SYSTEM14949&#45;&gt;SYSTEM14959 -->
<g id="edge20" class="edge"><title>SYSTEM14949&#45;&gt;SYSTEM14959</title>
<path fill="none" stroke="#ff3030" d="M457.984,-613.284C484.651,-675.888 574.024,-885.706 605.868,-960.466"/>
<polygon fill="#ff3030" stroke="#ff3030" points="602.659,-961.865 609.798,-969.694 609.1,-959.122 602.659,-961.865"/>
</g>
<!-- SYSTEM14960 -->
<g id="node22" class="node"><title>SYSTEM14960</title>
<ellipse fill="none" stroke="black" cx="552.251" cy="-962.549" rx="39.7989" ry="18"/>
<text text-anchor="middle" x="552.251" y="-957.449" font-family="Times,serif" font-size="14.00">rfc2388</text>
</g>
<!-- SYSTEM14949&#45;&gt;SYSTEM14960 -->
<g id="edge22" class="edge"><title>SYSTEM14949&#45;&gt;SYSTEM14960</title>
<path fill="none" stroke="#ff3030" d="M455.363,-613.388C471.849,-672.799 524.709,-863.294 544.592,-934.948"/>
<polygon fill="#ff3030" stroke="#ff3030" points="541.232,-935.928 547.278,-944.628 547.977,-934.057 541.232,-935.928"/>
</g>
<!-- SYSTEM14961 -->
<g id="node24" class="node"><title>SYSTEM14961</title>
<ellipse fill="none" stroke="black" cx="1296.71" cy="-710.104" rx="83.8426" ry="18"/>
<text text-anchor="middle" x="1296.71" y="-705.004" font-family="Times,serif" font-size="14.00">trivial&#45;gray&#45;streams</text>
</g>
<!-- SYSTEM14951&#45;&gt;SYSTEM14961 -->
<g id="edge24" class="edge"><title>SYSTEM14951&#45;&gt;SYSTEM14961</title>
<path fill="none" stroke="#ff3030" d="M1190.74,-683.985C1203.08,-687.028 1217.49,-690.58 1231.64,-694.066"/>
<polygon fill="#ff3030" stroke="#ff3030" points="1230.81,-697.468 1241.36,-696.463 1232.49,-690.671 1230.81,-697.468"/>
</g>
<!-- SYSTEM14952&#45;&gt;SYSTEM14961 -->
<g id="edge26" class="edge"><title>SYSTEM14952&#45;&gt;SYSTEM14961</title>
<path fill="none" stroke="#ff3030" d="M1184.31,-731.971C1197.03,-729.497 1210.97,-726.784 1224.58,-724.137"/>
<polygon fill="#ff3030" stroke="#ff3030" points="1225.26,-727.57 1234.41,-722.225 1223.92,-720.699 1225.26,-727.57"/>
</g>
<!-- SYSTEM14954&#45;&gt;SYSTEM14952 -->
<g id="edge28" class="edge"><title>SYSTEM14954&#45;&gt;SYSTEM14952</title>
<path fill="none" stroke="#ff3030" d="M1023.26,-890.128C1045.03,-861.148 1089.86,-801.499 1115.59,-767.261"/>
<polygon fill="#ff3030" stroke="#ff3030" points="1118.48,-769.235 1121.69,-759.138 1112.88,-765.03 1118.48,-769.235"/>
</g>
<!-- SYSTEM14954&#45;&gt;SYSTEM14958 -->
<g id="edge32" class="edge"><title>SYSTEM14954&#45;&gt;SYSTEM14958</title>
<path fill="none" stroke="#ff3030" d="M982.647,-915.003C929.661,-930.35 813.78,-963.916 743.371,-984.31"/>
<polygon fill="#ff3030" stroke="#ff3030" points="742.381,-980.953 733.749,-987.097 744.328,-987.676 742.381,-980.953"/>
</g>
<!-- SYSTEM14954&#45;&gt;SYSTEM14961 -->
<g id="edge34" class="edge"><title>SYSTEM14954&#45;&gt;SYSTEM14961</title>
<path fill="none" stroke="#ff3030" d="M1030.78,-893.05C1079.26,-859.697 1202.99,-774.577 1263.02,-733.278"/>
<polygon fill="#ff3030" stroke="#ff3030" points="1265.15,-736.065 1271.4,-727.514 1261.18,-730.298 1265.15,-736.065"/>
</g>
<!-- SYSTEM14962 -->
<g id="node28" class="node"><title>SYSTEM14962</title>
<ellipse fill="none" stroke="black" cx="1168.59" cy="-954.217" rx="65.1431" ry="18"/>
<text text-anchor="middle" x="1168.59" y="-949.117" font-family="Times,serif" font-size="14.00">trivial&#45;garbage</text>
</g>
<!-- SYSTEM14954&#45;&gt;SYSTEM14962 -->
<g id="edge30" class="edge"><title>SYSTEM14954&#45;&gt;SYSTEM14962</title>
<path fill="none" stroke="#ff3030" d="M1038.53,-915.24C1059.58,-921.547 1089.1,-930.396 1114.7,-938.068"/>
<polygon fill="#ff3030" stroke="#ff3030" points="1113.71,-941.426 1124.3,-940.944 1115.72,-934.72 1113.71,-941.426"/>
</g>
<!-- SYSTEM14963 -->
<g id="node32" class="node"><title>SYSTEM14963</title>
<ellipse fill="none" stroke="black" cx="1064.65" cy="-1046.3" rx="27" ry="18"/>
<text text-anchor="middle" x="1064.65" y="-1041.2" font-family="Times,serif" font-size="14.00">cffi</text>
</g>
<!-- SYSTEM14954&#45;&gt;SYSTEM14963 -->
<g id="edge36" class="edge"><title>SYSTEM14954&#45;&gt;SYSTEM14963</title>
<path fill="none" stroke="#ff3030" d="M1017.5,-924.544C1026.75,-948.427 1043.33,-991.25 1054.16,-1019.22"/>
<polygon fill="#ff3030" stroke="#ff3030" points="1050.99,-1020.72 1057.87,-1028.78 1057.52,-1018.2 1050.99,-1020.72"/>
</g>
<!-- SYSTEM14964 -->
<g id="node34" class="node"><title>SYSTEM14964</title>
<ellipse fill="none" stroke="black" cx="668.017" cy="-1144.06" rx="48.8967" ry="18"/>
<text text-anchor="middle" x="668.017" y="-1138.96" font-family="Times,serif" font-size="14.00">alexandria</text>
</g>
<!-- SYSTEM14958&#45;&gt;SYSTEM14964 -->
<g id="edge38" class="edge"><title>SYSTEM14958&#45;&gt;SYSTEM14964</title>
<path fill="none" stroke="#ff3030" d="M683.176,-1019.21C680.232,-1043.46 674.975,-1086.75 671.492,-1115.44"/>
<polygon fill="#ff3030" stroke="#ff3030" points="667.983,-1115.3 670.252,-1125.65 674.932,-1116.14 667.983,-1115.3"/>
</g>
<!-- SYSTEM14963&#45;&gt;SYSTEM14964 -->
<g id="edge42" class="edge"><title>SYSTEM14963&#45;&gt;SYSTEM14964</title>
<path fill="none" stroke="#ff3030" d="M1039.24,-1052.56C974.848,-1068.43 804.349,-1110.46 718.668,-1131.57"/>
<polygon fill="#ff3030" stroke="#ff3030" points="717.773,-1128.19 708.901,-1133.98 719.448,-1134.99 717.773,-1128.19"/>
</g>
<!-- SYSTEM14965 -->
<g id="node36" class="node"><title>SYSTEM14965</title>
<ellipse fill="none" stroke="black" cx="1192.81" cy="-1129.97" rx="30.0465" ry="18"/>
<text text-anchor="middle" x="1192.81" y="-1124.87" font-family="Times,serif" font-size="14.00">babel</text>
</g>
<!-- SYSTEM14963&#45;&gt;SYSTEM14965 -->
<g id="edge40" class="edge"><title>SYSTEM14963&#45;&gt;SYSTEM14965</title>
<path fill="none" stroke="#ff3030" d="M1084.12,-1059.01C1105.32,-1072.85 1139.46,-1095.14 1163.82,-1111.05"/>
<polygon fill="#ff3030" stroke="#ff3030" points="1162.02,-1114.05 1172.31,-1116.59 1165.85,-1108.19 1162.02,-1114.05"/>
</g>
<!-- SYSTEM14966 -->
<g id="node39" class="node"><title>SYSTEM14966</title>
<ellipse fill="none" stroke="black" cx="1097.45" cy="-1195.8" rx="63.8455" ry="18"/>
<text text-anchor="middle" x="1097.45" y="-1190.7" font-family="Times,serif" font-size="14.00">trivial&#45;features</text>
</g>
<!-- SYSTEM14963&#45;&gt;SYSTEM14966 -->
<g id="edge44" class="edge"><title>SYSTEM14963&#45;&gt;SYSTEM14966</title>
<path fill="none" stroke="#ff3030" d="M1068.61,-1064.33C1074.25,-1090.03 1084.65,-1137.44 1091.29,-1167.75"/>
<polygon fill="#ff3030" stroke="#ff3030" points="1087.91,-1168.68 1093.48,-1177.7 1094.75,-1167.18 1087.91,-1168.68"/>
</g>
<!-- SYSTEM14967 -->
<g id="node41" class="node"><title>SYSTEM14967</title>
<ellipse fill="none" stroke="black" cx="492.042" cy="-927.787" rx="29.8973" ry="18"/>
<text text-anchor="middle" x="492.042" y="-922.687" font-family="Times,serif" font-size="14.00">clack</text>
</g>
<!-- SYSTEM14967&#45;&gt;SYSTEM14949 -->
<g id="edge46" class="edge"><title>SYSTEM14967&#45;&gt;SYSTEM14949</title>
<path fill="none" stroke="#8fbc8f" d="M489.743,-909.445C482.843,-854.402 462.278,-690.35 453.946,-623.877"/>
<polygon fill="#8fbc8f" stroke="#8fbc8f" points="457.389,-623.205 452.672,-613.718 450.443,-624.076 457.389,-623.205"/>
</g>
<!-- SYSTEM14971 -->
<g id="node49" class="node"><title>SYSTEM14971</title>
<ellipse fill="none" stroke="black" cx="327.678" cy="-709.059" rx="41.0951" ry="18"/>
<text text-anchor="middle" x="327.678" y="-703.959" font-family="Times,serif" font-size="14.00">cl&#45;oauth</text>
</g>
<!-- SYSTEM14967&#45;&gt;SYSTEM14971 -->
<g id="edge86" class="edge"><title>SYSTEM14967&#45;&gt;SYSTEM14971</title>
<path fill="none" stroke="#8fbc8f" d="M479.688,-911.347C451.213,-873.453 380.804,-779.756 346.741,-734.427"/>
<polygon fill="#8fbc8f" stroke="#8fbc8f" points="349.435,-732.185 340.629,-726.294 343.839,-736.391 349.435,-732.185"/>
</g>
<!-- SYSTEM14968 -->
<g id="node43" class="node"><title>SYSTEM14968</title>
<ellipse fill="none" stroke="black" cx="438.189" cy="-883.818" rx="50.0456" ry="18"/>
<text text-anchor="middle" x="438.189" y="-878.718" font-family="Times,serif" font-size="14.00">cl&#45;webdav</text>
</g>
<!-- SYSTEM14968&#45;&gt;SYSTEM14949 -->
<g id="edge48" class="edge"><title>SYSTEM14968&#45;&gt;SYSTEM14949</title>
<path fill="none" stroke="#8fbc8f" d="M438.952,-865.778C441.013,-817.023 446.706,-682.345 449.192,-623.528"/>
<polygon fill="#8fbc8f" stroke="#8fbc8f" points="452.692,-623.605 449.618,-613.466 445.699,-623.309 452.692,-623.605"/>
</g>
<!-- SYSTEM14969 -->
<g id="node45" class="node"><title>SYSTEM14969</title>
<ellipse fill="none" stroke="black" cx="392.087" cy="-831.779" rx="81.2428" ry="18"/>
<text text-anchor="middle" x="392.087" y="-826.679" font-family="Times,serif" font-size="14.00">hunchentoot&#45;vhost</text>
</g>
<!-- SYSTEM14969&#45;&gt;SYSTEM14949 -->
<g id="edge50" class="edge"><title>SYSTEM14969&#45;&gt;SYSTEM14949</title>
<path fill="none" stroke="#8fbc8f" d="M396.564,-813.626C406.673,-772.64 431.325,-672.69 443.435,-623.591"/>
<polygon fill="#8fbc8f" stroke="#8fbc8f" points="446.891,-624.195 445.888,-613.648 440.095,-622.519 446.891,-624.195"/>
</g>
<!-- SYSTEM14970 -->
<g id="node47" class="node"><title>SYSTEM14970</title>
<ellipse fill="none" stroke="black" cx="354.929" cy="-773.019" rx="44.996" ry="18"/>
<text text-anchor="middle" x="354.929" y="-767.919" font-family="Times,serif" font-size="14.00">cl&#45;paypal</text>
</g>
<!-- SYSTEM14970&#45;&gt;SYSTEM14949 -->
<g id="edge52" class="edge"><title>SYSTEM14970&#45;&gt;SYSTEM14949</title>
<path fill="none" stroke="#8fbc8f" d="M364.43,-755.342C381.182,-724.175 416.067,-659.273 435.856,-622.455"/>
<polygon fill="#8fbc8f" stroke="#8fbc8f" points="439.124,-623.767 440.776,-613.302 432.958,-620.453 439.124,-623.767"/>
</g>
<!-- SYSTEM14971&#45;&gt;SYSTEM14949 -->
<g id="edge54" class="edge"><title>SYSTEM14971&#45;&gt;SYSTEM14949</title>
<path fill="none" stroke="#8fbc8f" d="M345.259,-692.779C365.858,-673.703 400.194,-641.907 423.993,-619.868"/>
<polygon fill="#8fbc8f" stroke="#8fbc8f" points="426.666,-622.163 431.625,-612.8 421.91,-617.027 426.666,-622.163"/>
</g>
<!-- SYSTEM14972 -->
<g id="node51" class="node"><title>SYSTEM14972</title>
<ellipse fill="none" stroke="black" cx="311.041" cy="-641.556" rx="76.8441" ry="18"/>
<text text-anchor="middle" x="311.041" y="-636.456" font-family="Times,serif" font-size="14.00">hunchentoot&#45;auth</text>
</g>
<!-- SYSTEM14972&#45;&gt;SYSTEM14949 -->
<g id="edge56" class="edge"><title>SYSTEM14972&#45;&gt;SYSTEM14949</title>
<path fill="none" stroke="#8fbc8f" d="M355.512,-626.836C370.016,-622.034 386.204,-616.676 401.043,-611.764"/>
<polygon fill="#8fbc8f" stroke="#8fbc8f" points="402.175,-615.076 410.569,-608.611 399.976,-608.431 402.175,-615.076"/>
</g>
<!-- SYSTEM14973 -->
<g id="node53" class="node"><title>SYSTEM14973</title>
<ellipse fill="none" stroke="black" cx="392.087" cy="-312.738" rx="46.1459" ry="18"/>
<text text-anchor="middle" x="392.087" y="-307.638" font-family="Times,serif" font-size="14.00">weblocks</text>
</g>
<!-- SYSTEM14973&#45;&gt;SYSTEM14949 -->
<g id="edge58" class="edge"><title>SYSTEM14973&#45;&gt;SYSTEM14949</title>
<path fill="none" stroke="#8fbc8f" d="M395.822,-330.852C405.71,-378.806 432.626,-509.336 444.555,-567.184"/>
<polygon fill="#8fbc8f" stroke="#8fbc8f" points="441.153,-568.017 446.601,-577.104 448.009,-566.603 441.153,-568.017"/>
</g>
<!-- SYSTEM14974 -->
<g id="node55" class="node"><title>SYSTEM14974</title>
<ellipse fill="none" stroke="black" cx="593.913" cy="-583.846" rx="31.1972" ry="18"/>
<text text-anchor="middle" x="593.913" y="-578.746" font-family="Times,serif" font-size="14.00">restas</text>
</g>
<!-- SYSTEM14974&#45;&gt;SYSTEM14949 -->
<g id="edge60" class="edge"><title>SYSTEM14974&#45;&gt;SYSTEM14949</title>
<path fill="none" stroke="#8fbc8f" d="M563.122,-586.331C549.479,-587.433 532.865,-588.774 516.63,-590.085"/>
<polygon fill="#8fbc8f" stroke="#8fbc8f" points="516.286,-586.601 506.6,-590.894 516.849,-593.578 516.286,-586.601"/>
</g>
<!-- SYSTEM14975 -->
<g id="node57" class="node"><title>SYSTEM14975</title>
<ellipse fill="none" stroke="black" cx="685.374" cy="-143.408" rx="27" ry="18"/>
<text text-anchor="middle" x="685.374" y="-138.308" font-family="Times,serif" font-size="14.00">gtfl</text>
</g>
<!-- SYSTEM14975&#45;&gt;SYSTEM14949 -->
<g id="edge62" class="edge"><title>SYSTEM14975&#45;&gt;SYSTEM14949</title>
<path fill="none" stroke="#8fbc8f" d="M676.449,-160.576C640.768,-229.21 508.2,-484.213 464.473,-568.324"/>
<polygon fill="#8fbc8f" stroke="#8fbc8f" points="461.331,-566.78 459.824,-577.267 467.542,-570.009 461.331,-566.78"/>
</g>
<!-- SYSTEM14983 -->
<g id="node73" class="node"><title>SYSTEM14983</title>
<ellipse fill="none" stroke="black" cx="1134.88" cy="-402.929" rx="63.8455" ry="18"/>
<text text-anchor="middle" x="1134.88" y="-397.829" font-family="Times,serif" font-size="14.00">ht&#45;simple&#45;ajax</text>
</g>
<!-- SYSTEM14975&#45;&gt;SYSTEM14983 -->
<g id="edge122" class="edge"><title>SYSTEM14975&#45;&gt;SYSTEM14983</title>
<path fill="none" stroke="#8fbc8f" d="M705.857,-155.234C776.012,-195.738 1007.29,-329.267 1097.95,-381.611"/>
<polygon fill="#8fbc8f" stroke="#8fbc8f" points="1096.37,-384.74 1106.78,-386.709 1099.87,-378.678 1096.37,-384.74"/>
</g>
<!-- SYSTEM14976 -->
<g id="node59" class="node"><title>SYSTEM14976</title>
<ellipse fill="none" stroke="black" cx="754.841" cy="-140.609" rx="44.846" ry="18"/>
<text text-anchor="middle" x="754.841" y="-135.509" font-family="Times,serif" font-size="14.00">cxml&#45;rpc</text>
</g>
<!-- SYSTEM14976&#45;&gt;SYSTEM14949 -->
<g id="edge64" class="edge"><title>SYSTEM14976&#45;&gt;SYSTEM14949</title>
<path fill="none" stroke="#8fbc8f" d="M743.092,-158.16C696.382,-227.939 523.664,-485.956 467.879,-569.292"/>
<polygon fill="#8fbc8f" stroke="#8fbc8f" points="464.912,-567.432 462.258,-577.689 470.729,-571.326 464.912,-567.432"/>
</g>
<!-- SYSTEM14977 -->
<g id="node61" class="node"><title>SYSTEM14977</title>
<ellipse fill="none" stroke="black" cx="1024.51" cy="-549.084" rx="72.1436" ry="18"/>
<text text-anchor="middle" x="1024.51" y="-543.984" font-family="Times,serif" font-size="14.00">hunchentoot&#45;cgi</text>
</g>
<!-- SYSTEM14977&#45;&gt;SYSTEM14949 -->
<g id="edge66" class="edge"><title>SYSTEM14977&#45;&gt;SYSTEM14949</title>
<path fill="none" stroke="#8fbc8f" d="M955.829,-554.629C844.673,-563.602 626.76,-581.194 516.965,-590.058"/>
<polygon fill="#8fbc8f" stroke="#8fbc8f" points="516.37,-586.594 506.684,-590.887 516.934,-593.571 516.37,-586.594"/>
</g>
<!-- SYSTEM14978 -->
<g id="node63" class="node"><title>SYSTEM14978</title>
<ellipse fill="none" stroke="black" cx="823.857" cy="-148.989" rx="50.0456" ry="18"/>
<text text-anchor="middle" x="823.857" y="-143.889" font-family="Times,serif" font-size="14.00">rpc4cl&#45;test</text>
</g>
<!-- SYSTEM14978&#45;&gt;SYSTEM14949 -->
<g id="edge68" class="edge"><title>SYSTEM14978&#45;&gt;SYSTEM14949</title>
<path fill="none" stroke="#8fbc8f" d="M809.217,-166.49C751.586,-235.38 540.194,-488.072 471.849,-569.77"/>
<polygon fill="#8fbc8f" stroke="#8fbc8f" points="469.057,-567.652 465.326,-577.568 474.427,-572.143 469.057,-567.652"/>
</g>
<!-- SYSTEM14979 -->
<g id="node65" class="node"><title>SYSTEM14979</title>
<ellipse fill="none" stroke="black" cx="922.641" cy="-181.968" rx="44.1961" ry="18"/>
<text text-anchor="middle" x="922.641" y="-176.868" font-family="Times,serif" font-size="14.00">webfunk</text>
</g>
<!-- SYSTEM14979&#45;&gt;SYSTEM14949 -->
<g id="edge70" class="edge"><title>SYSTEM14979&#45;&gt;SYSTEM14949</title>
<path fill="none" stroke="#8fbc8f" d="M903.837,-198.431C830.556,-262.589 563.916,-496.032 477.567,-571.631"/>
<polygon fill="#8fbc8f" stroke="#8fbc8f" points="475.237,-569.019 470.019,-578.239 479.848,-574.285 475.237,-569.019"/>
</g>
<!-- SYSTEM14980 -->
<g id="node67" class="node"><title>SYSTEM14980</title>
<ellipse fill="none" stroke="black" cx="1010.66" cy="-237.629" rx="53.9452" ry="18"/>
<text text-anchor="middle" x="1010.66" y="-232.529" font-family="Times,serif" font-size="14.00">amazon&#45;ecs</text>
</g>
<!-- SYSTEM14980&#45;&gt;SYSTEM14949 -->
<g id="edge72" class="edge"><title>SYSTEM14980&#45;&gt;SYSTEM14949</title>
<path fill="none" stroke="#8fbc8f" d="M985.5,-253.698C895.187,-311.373 587.284,-508.004 484.268,-573.791"/>
<polygon fill="#8fbc8f" stroke="#8fbc8f" points="482.338,-570.872 475.793,-579.204 486.105,-576.771 482.338,-570.872"/>
</g>
<!-- SYSTEM14981 -->
<g id="node69" class="node"><title>SYSTEM14981</title>
<ellipse fill="none" stroke="black" cx="1060.8" cy="-285.789" rx="57.8449" ry="18"/>
<text text-anchor="middle" x="1060.8" y="-280.689" font-family="Times,serif" font-size="14.00">hh&#45;web&#45;tags</text>
</g>
<!-- SYSTEM14981&#45;&gt;SYSTEM14949 -->
<g id="edge74" class="edge"><title>SYSTEM14981&#45;&gt;SYSTEM14949</title>
<path fill="none" stroke="#8fbc8f" d="M1030.53,-301.145C929.448,-352.42 603.539,-517.741 489.904,-575.384"/>
<polygon fill="#8fbc8f" stroke="#8fbc8f" points="488.169,-572.34 480.834,-579.985 491.335,-578.582 488.169,-572.34"/>
</g>
<!-- SYSTEM14982 -->
<g id="node71" class="node"><title>SYSTEM14982</title>
<ellipse fill="none" stroke="black" cx="1102.57" cy="-341.369" rx="72.9439" ry="18"/>
<text text-anchor="middle" x="1102.57" y="-336.269" font-family="Times,serif" font-size="14.00">hunchentoot&#45;test</text>
</g>
<!-- SYSTEM14982&#45;&gt;SYSTEM14949 -->
<g id="edge76" class="edge"><title>SYSTEM14982&#45;&gt;SYSTEM14949</title>
<path fill="none" stroke="#8fbc8f" d="M1063.24,-356.69C949.148,-401.135 618.443,-529.963 496.364,-577.52"/>
<polygon fill="#8fbc8f" stroke="#8fbc8f" points="494.961,-574.31 486.913,-581.201 497.502,-580.832 494.961,-574.31"/>
</g>
<!-- SYSTEM14983&#45;&gt;SYSTEM14949 -->
<g id="edge78" class="edge"><title>SYSTEM14983&#45;&gt;SYSTEM14949</title>
<path fill="none" stroke="#8fbc8f" d="M1089.44,-415.709C967.502,-450.001 633.547,-543.92 503.345,-580.537"/>
<polygon fill="#8fbc8f" stroke="#8fbc8f" points="502.27,-577.204 493.591,-583.281 504.165,-583.942 502.27,-577.204"/>
</g>
<!-- SYSTEM14984 -->
<g id="node75" class="node"><title>SYSTEM14984</title>
<ellipse fill="none" stroke="black" cx="1156.89" cy="-468.874" rx="44.1961" ry="18"/>
<text text-anchor="middle" x="1156.89" y="-463.774" font-family="Times,serif" font-size="14.00">nuclblog</text>
</g>
<!-- SYSTEM14984&#45;&gt;SYSTEM14949 -->
<g id="edge80" class="edge"><title>SYSTEM14984&#45;&gt;SYSTEM14949</title>
<path fill="none" stroke="#8fbc8f" d="M1116.37,-476.133C997.944,-497.347 651.921,-559.33 511.078,-584.56"/>
<polygon fill="#8fbc8f" stroke="#8fbc8f" points="510.122,-581.175 500.896,-586.384 511.357,-588.066 510.122,-581.175"/>
</g>
<!-- SYSTEM14984&#45;&gt;SYSTEM14969 -->
<g id="edge84" class="edge"><title>SYSTEM14984&#45;&gt;SYSTEM14969</title>
<path fill="none" stroke="#8fbc8f" d="M1127.85,-482.657C1011.15,-538.028 576.05,-744.488 435.892,-810.994"/>
<polygon fill="#8fbc8f" stroke="#8fbc8f" points="434.239,-807.904 426.705,-815.353 437.24,-814.228 434.239,-807.904"/>
</g>
<!-- SYSTEM14984&#45;&gt;SYSTEM14972 -->
<g id="edge90" class="edge"><title>SYSTEM14984&#45;&gt;SYSTEM14972</title>
<path fill="none" stroke="#8fbc8f" d="M1117.51,-476.914C984.148,-504.14 548.451,-593.088 379.166,-627.648"/>
<polygon fill="#8fbc8f" stroke="#8fbc8f" points="378.227,-624.268 369.129,-629.697 379.627,-631.126 378.227,-624.268"/>
</g>
<!-- SYSTEM14985 -->
<g id="node77" class="node"><title>SYSTEM14985</title>
<ellipse fill="none" stroke="black" cx="410.241" cy="-1046.3" rx="42.8962" ry="18"/>
<text text-anchor="middle" x="410.241" y="-1041.2" font-family="Times,serif" font-size="14.00">caveman</text>
</g>
<!-- SYSTEM14985&#45;&gt;SYSTEM14967 -->
<g id="edge82" class="edge"><title>SYSTEM14985&#45;&gt;SYSTEM14967</title>
<path fill="none" stroke="#8fbc8f" d="M422.311,-1028.81C436.121,-1008.8 458.855,-975.868 474.592,-953.068"/>
<polygon fill="#8fbc8f" stroke="#8fbc8f" points="477.652,-954.796 480.452,-944.578 471.891,-950.82 477.652,-954.796"/>
</g>
<!-- SYSTEM14986 -->
<g id="node81" class="node"><title>SYSTEM14986</title>
<ellipse fill="none" stroke="black" cx="191.089" cy="-754.659" rx="44.846" ry="18"/>
<text text-anchor="middle" x="191.089" y="-749.559" font-family="Times,serif" font-size="14.00">cl&#45;twitter</text>
</g>
<!-- SYSTEM14986&#45;&gt;SYSTEM14971 -->
<g id="edge88" class="edge"><title>SYSTEM14986&#45;&gt;SYSTEM14971</title>
<path fill="none" stroke="#8fbc8f" d="M225.91,-743.034C243.948,-737.012 266.125,-729.608 285.168,-723.251"/>
<polygon fill="#8fbc8f" stroke="#8fbc8f" points="286.425,-726.522 294.802,-720.035 284.208,-719.882 286.425,-726.522"/>
</g>
<!-- SYSTEM14987 -->
<g id="node84" class="node"><title>SYSTEM14987</title>
<ellipse fill="none" stroke="black" cx="161.446" cy="-572.258" rx="94.8916" ry="18"/>
<text text-anchor="middle" x="161.446" y="-567.158" font-family="Times,serif" font-size="14.00">weblocks&#45;postmodern</text>
</g>
<!-- SYSTEM14987&#45;&gt;SYSTEM14973 -->
<g id="edge92" class="edge"><title>SYSTEM14987&#45;&gt;SYSTEM14973</title>
<path fill="none" stroke="#8fbc8f" d="M177.299,-554.421C217.487,-509.2 323.444,-389.976 369.819,-337.795"/>
<polygon fill="#8fbc8f" stroke="#8fbc8f" points="372.704,-339.817 376.731,-330.017 367.471,-335.167 372.704,-339.817"/>
</g>
<!-- SYSTEM14988 -->
<g id="node86" class="node"><title>SYSTEM14988</title>
<ellipse fill="none" stroke="black" cx="168.905" cy="-479.862" rx="104.792" ry="18"/>
<text text-anchor="middle" x="168.905" y="-474.762" font-family="Times,serif" font-size="14.00">weblocks&#45;demo&#45;popover</text>
</g>
<!-- SYSTEM14988&#45;&gt;SYSTEM14973 -->
<g id="edge94" class="edge"><title>SYSTEM14988&#45;&gt;SYSTEM14973</title>
<path fill="none" stroke="#8fbc8f" d="M192.368,-462.292C233.267,-431.666 317.53,-368.568 362.418,-334.955"/>
<polygon fill="#8fbc8f" stroke="#8fbc8f" points="364.677,-337.636 370.584,-328.84 360.481,-332.032 364.677,-337.636"/>
</g>
<!-- SYSTEM14992 -->
<g id="node94" class="node"><title>SYSTEM14992</title>
<ellipse fill="none" stroke="black" cx="338.437" cy="-156.846" rx="70.8437" ry="18"/>
<text text-anchor="middle" x="338.437" y="-151.746" font-family="Times,serif" font-size="14.00">weblocks&#45;yarek</text>
</g>
<!-- SYSTEM14988&#45;&gt;SYSTEM14992 -->
<g id="edge126" class="edge"><title>SYSTEM14988&#45;&gt;SYSTEM14992</title>
<path fill="none" stroke="#8fbc8f" d="M178.506,-461.569C206.888,-407.491 290.515,-248.154 324.168,-184.032"/>
<polygon fill="#8fbc8f" stroke="#8fbc8f" points="327.394,-185.419 328.942,-174.937 321.195,-182.165 327.394,-185.419"/>
</g>
<!-- SYSTEM14989 -->
<g id="node88" class="node"><title>SYSTEM14989</title>
<ellipse fill="none" stroke="black" cx="191.089" cy="-389.858" rx="61.2425" ry="18"/>
<text text-anchor="middle" x="191.089" y="-384.758" font-family="Times,serif" font-size="14.00">weblocks&#45;yui</text>
</g>
<!-- SYSTEM14989&#45;&gt;SYSTEM14973 -->
<g id="edge96" class="edge"><title>SYSTEM14989&#45;&gt;SYSTEM14973</title>
<path fill="none" stroke="#8fbc8f" d="M228.424,-375.533C262.669,-362.393 313.369,-342.941 349.25,-329.174"/>
<polygon fill="#8fbc8f" stroke="#8fbc8f" points="350.868,-332.302 358.951,-325.452 348.361,-325.766 350.868,-332.302"/>
</g>
<!-- SYSTEM14990 -->
<g id="node90" class="node"><title>SYSTEM14990</title>
<ellipse fill="none" stroke="black" cx="227.424" cy="-304.578" rx="63.0444" ry="18"/>
<text text-anchor="middle" x="227.424" y="-299.478" font-family="Times,serif" font-size="14.00">weblocks&#45;s11</text>
</g>
<!-- SYSTEM14990&#45;&gt;SYSTEM14973 -->
<g id="edge98" class="edge"><title>SYSTEM14990&#45;&gt;SYSTEM14973</title>
<path fill="none" stroke="#8fbc8f" d="M289.676,-307.663C304.993,-308.422 321.298,-309.23 336.289,-309.973"/>
<polygon fill="#8fbc8f" stroke="#8fbc8f" points="336.268,-313.476 346.429,-310.475 336.615,-306.484 336.268,-313.476"/>
</g>
<!-- SYSTEM14991 -->
<g id="node92" class="node"><title>SYSTEM14991</title>
<ellipse fill="none" stroke="black" cx="276.967" cy="-226.231" rx="83.1926" ry="18"/>
<text text-anchor="middle" x="276.967" y="-221.131" font-family="Times,serif" font-size="14.00">weblocks&#45;store&#45;test</text>
</g>
<!-- SYSTEM14991&#45;&gt;SYSTEM14973 -->
<g id="edge100" class="edge"><title>SYSTEM14991&#45;&gt;SYSTEM14973</title>
<path fill="none" stroke="#8fbc8f" d="M299.987,-243.529C317.934,-257.015 342.991,-275.844 362.438,-290.458"/>
<polygon fill="#8fbc8f" stroke="#8fbc8f" points="360.566,-293.429 370.663,-296.638 364.771,-287.833 360.566,-293.429"/>
</g>
<!-- SYSTEM14992&#45;&gt;SYSTEM14973 -->
<g id="edge102" class="edge"><title>SYSTEM14992&#45;&gt;SYSTEM14973</title>
<path fill="none" stroke="#8fbc8f" d="M344.696,-175.034C354.025,-202.139 371.645,-253.339 382.573,-285.094"/>
<polygon fill="#8fbc8f" stroke="#8fbc8f" points="379.304,-286.349 385.868,-294.666 385.923,-284.071 379.304,-286.349"/>
</g>
<!-- SYSTEM14993 -->
<g id="node96" class="node"><title>SYSTEM14993</title>
<ellipse fill="none" stroke="black" cx="410.241" cy="-98.2197" rx="70.8437" ry="18"/>
<text text-anchor="middle" x="410.241" y="-93.1197" font-family="Times,serif" font-size="14.00">weblocks&#45;demo</text>
</g>
<!-- SYSTEM14993&#45;&gt;SYSTEM14973 -->
<g id="edge104" class="edge"><title>SYSTEM14993&#45;&gt;SYSTEM14973</title>
<path fill="none" stroke="#8fbc8f" d="M408.693,-116.509C405.525,-153.951 398.279,-239.563 394.493,-284.31"/>
<polygon fill="#8fbc8f" stroke="#8fbc8f" points="390.987,-284.235 393.631,-294.494 397.962,-284.825 390.987,-284.235"/>
</g>
<!-- SYSTEM14994 -->
<g id="node98" class="node"><title>SYSTEM14994</title>
<ellipse fill="none" stroke="black" cx="490.519" cy="-51.871" rx="55.895" ry="18"/>
<text text-anchor="middle" x="490.519" y="-46.771" font-family="Times,serif" font-size="14.00">simple&#45;blog</text>
</g>
<!-- SYSTEM14994&#45;&gt;SYSTEM14973 -->
<g id="edge106" class="edge"><title>SYSTEM14994&#45;&gt;SYSTEM14973</title>
<path fill="none" stroke="#8fbc8f" d="M483.754,-69.8014C466.86,-114.572 422.737,-231.51 402.501,-285.138"/>
<polygon fill="#8fbc8f" stroke="#8fbc8f" points="399.156,-284.09 398.9,-294.682 405.705,-286.561 399.156,-284.09"/>
</g>
<!-- SYSTEM14995 -->
<g id="node100" class="node"><title>SYSTEM14995</title>
<ellipse fill="none" stroke="black" cx="577.193" cy="-19" rx="81.2428" ry="18"/>
<text text-anchor="middle" x="577.193" y="-13.9" font-family="Times,serif" font-size="14.00">weblocks&#45;memory</text>
</g>
<!-- SYSTEM14995&#45;&gt;SYSTEM14973 -->
<g id="edge108" class="edge"><title>SYSTEM14995&#45;&gt;SYSTEM14973</title>
<path fill="none" stroke="#8fbc8f" d="M565.892,-36.9324C534.45,-86.8275 445.821,-227.469 408.733,-286.323"/>
<polygon fill="#8fbc8f" stroke="#8fbc8f" points="405.61,-284.714 403.24,-295.04 411.532,-288.446 405.61,-284.714"/>
</g>
<!-- SYSTEM14996 -->
<g id="node102" class="node"><title>SYSTEM14996</title>
<ellipse fill="none" stroke="black" cx="737.446" cy="-572.258" rx="48.0957" ry="18"/>
<text text-anchor="middle" x="737.446" y="-567.158" font-family="Times,serif" font-size="14.00">restas&#45;doc</text>
</g>
<!-- SYSTEM14996&#45;&gt;SYSTEM14974 -->
<g id="edge110" class="edge"><title>SYSTEM14996&#45;&gt;SYSTEM14974</title>
<path fill="none" stroke="#8fbc8f" d="M690.448,-576.053C672.574,-577.495 652.363,-579.127 635.07,-580.523"/>
<polygon fill="#8fbc8f" stroke="#8fbc8f" points="634.413,-577.065 624.727,-581.358 634.976,-584.042 634.413,-577.065"/>
</g>
<!-- SYSTEM14997 -->
<g id="node104" class="node"><title>SYSTEM14997</title>
<ellipse fill="none" stroke="black" cx="880.979" cy="-560.671" rx="107.24" ry="18"/>
<text text-anchor="middle" x="880.979" y="-555.571" font-family="Times,serif" font-size="14.00">restas&#45;directory&#45;publisher</text>
</g>
<!-- SYSTEM14996&#45;&gt;SYSTEM14997 -->
<g id="edge128" class="edge"><title>SYSTEM14996&#45;&gt;SYSTEM14997</title>
<path fill="none" stroke="#8fbc8f" d="M784.444,-568.464C784.526,-568.458 784.608,-568.451 784.69,-568.445"/>
<polygon fill="#8fbc8f" stroke="#8fbc8f" points="775.251,-572.722 784.935,-568.425 774.685,-565.744 775.251,-572.722"/>
</g>
<!-- SYSTEM14997&#45;&gt;SYSTEM14974 -->
<g id="edge112" class="edge"><title>SYSTEM14997&#45;&gt;SYSTEM14974</title>
<path fill="none" stroke="#8fbc8f" d="M784.192,-568.485C733.457,-572.58 673.975,-577.382 635.199,-580.513"/>
<polygon fill="#8fbc8f" stroke="#8fbc8f" points="634.522,-577.056 624.836,-581.349 635.085,-584.033 634.522,-577.056"/>
</g>
<!-- SYSTEM14997&#45;&gt;SYSTEM14977 -->
<g id="edge114" class="edge"><title>SYSTEM14997&#45;&gt;SYSTEM14977</title>
<path fill="none" stroke="#8fbc8f" d="M977.514,-552.878C977.565,-552.874 977.616,-552.87 977.666,-552.866"/>
<polygon fill="#8fbc8f" stroke="#8fbc8f" points="968.134,-557.153 977.818,-552.854 967.567,-550.176 968.134,-557.153"/>
</g>
<!-- SYSTEM14998 -->
<g id="node107" class="node"><title>SYSTEM14998</title>
<ellipse fill="none" stroke="black" cx="941.699" cy="-33.6891" rx="46.1459" ry="18"/>
<text text-anchor="middle" x="941.699" y="-28.5891" font-family="Times,serif" font-size="14.00">metafunk</text>
</g>
<!-- SYSTEM14998&#45;&gt;SYSTEM14979 -->
<g id="edge116" class="edge"><title>SYSTEM14998&#45;&gt;SYSTEM14979</title>
<path fill="none" stroke="#8fbc8f" d="M939.362,-51.871C936.104,-77.217 930.166,-123.424 926.313,-153.397"/>
<polygon fill="#8fbc8f" stroke="#8fbc8f" points="922.801,-153.273 924.997,-163.637 929.744,-154.165 922.801,-153.273"/>
</g>
<!-- SYSTEM14999 -->
<g id="node109" class="node"><title>SYSTEM14999</title>
<ellipse fill="none" stroke="black" cx="1025.45" cy="-73.4278" rx="70.9937" ry="18"/>
<text text-anchor="middle" x="1025.45" y="-68.3278" font-family="Times,serif" font-size="14.00">webfunk&#45;scripts</text>
</g>
<!-- SYSTEM14999&#45;&gt;SYSTEM14979 -->
<g id="edge118" class="edge"><title>SYSTEM14999&#45;&gt;SYSTEM14979</title>
<path fill="none" stroke="#8fbc8f" d="M1008.47,-91.351C991.276,-109.504 964.572,-137.698 945.519,-157.814"/>
<polygon fill="#8fbc8f" stroke="#8fbc8f" points="942.963,-155.423 938.627,-165.09 948.045,-160.237 942.963,-155.423"/>
</g>
<!-- SYSTEM15000 -->
<g id="node111" class="node"><title>SYSTEM15000</title>
<ellipse fill="none" stroke="black" cx="1168.59" cy="-190.3" rx="76.8441" ry="18"/>
<text text-anchor="middle" x="1168.59" y="-185.2" font-family="Times,serif" font-size="14.00">hh&#45;web&#45;tags&#45;tests</text>
</g>
<!-- SYSTEM15000&#45;&gt;SYSTEM14981 -->
<g id="edge120" class="edge"><title>SYSTEM15000&#45;&gt;SYSTEM14981</title>
<path fill="none" stroke="#8fbc8f" d="M1148.82,-207.814C1131.7,-222.984 1106.76,-245.071 1087.8,-261.868"/>
<polygon fill="#8fbc8f" stroke="#8fbc8f" points="1085.25,-259.456 1080.08,-268.707 1089.89,-264.696 1085.25,-259.456"/>
</g>
<!-- SYSTEM15001 -->
<g id="node114" class="node"><title>SYSTEM15001</title>
<ellipse fill="none" stroke="black" cx="54.5" cy="-800.259" rx="52.7972" ry="18"/>
<text text-anchor="middle" x="54.5" y="-795.159" font-family="Times,serif" font-size="14.00">cl&#45;twit&#45;repl</text>
</g>
<!-- SYSTEM15001&#45;&gt;SYSTEM14986 -->
<g id="edge124" class="edge"><title>SYSTEM15001&#45;&gt;SYSTEM14986</title>
<path fill="none" stroke="#8fbc8f" d="M92.5477,-787.557C109.308,-781.962 129.115,-775.349 146.558,-769.526"/>
<polygon fill="#8fbc8f" stroke="#8fbc8f" points="148.137,-772.689 156.514,-766.202 145.921,-766.049 148.137,-772.689"/>
</g>
</g>
</svg>
