<?xml version="1.0" encoding="UTF-8" standalone="no"?>
<!DOCTYPE svg PUBLIC "-//W3C//DTD SVG 1.1//EN"
 "http://www.w3.org/Graphics/SVG/1.1/DTD/svg11.dtd">
<!-- Generated by graphviz version 2.26.3 (20100126.1600)
 -->
<!-- Title: systems Pages: 1 -->
<svg width="433pt" height="334pt"
 viewBox="0.00 0.00 432.60 333.58" xmlns="http://www.w3.org/2000/svg" xmlns:xlink="http://www.w3.org/1999/xlink">
<g id="graph1" class="graph" transform="scale(1 1) rotate(0) translate(4 329.578)">
<title>systems</title>
<polygon fill="white" stroke="white" points="-4,5 -4,-329.578 429.595,-329.578 429.595,5 -4,5"/>
<!-- SYSTEM12947 -->
<g id="node1" class="node"><title>SYSTEM12947</title>
<ellipse fill="none" stroke="red" cx="222.633" cy="-162.789" rx="57.8449" ry="18"/>
<text text-anchor="middle" x="222.633" y="-157.689" font-family="Times,serif" font-size="14.00">hunchentoot</text>
</g>
<!-- SYSTEM12948 -->
<g id="node2" class="node"><title>SYSTEM12948</title>
<ellipse fill="none" stroke="black" cx="365.789" cy="-178.358" rx="38.9965" ry="18"/>
<text text-anchor="middle" x="365.789" y="-173.258" font-family="Times,serif" font-size="14.00">usocket</text>
</g>
<!-- SYSTEM12947&#45;&gt;SYSTEM12948 -->
<g id="edge2" class="edge"><title>SYSTEM12947&#45;&gt;SYSTEM12948</title>
<path fill="none" stroke="#ff3030" d="M277.572,-168.764C290.762,-170.198 304.75,-171.72 317.606,-173.118"/>
<polygon fill="#ff3030" stroke="#ff3030" points="317.318,-176.607 327.638,-174.209 318.075,-169.648 317.318,-176.607"/>
</g>
<!-- SYSTEM12949 -->
<g id="node4" class="node"><title>SYSTEM12949</title>
<ellipse fill="none" stroke="black" cx="359.095" cy="-208.768" rx="37.8486" ry="18"/>
<text text-anchor="middle" x="359.095" y="-203.668" font-family="Times,serif" font-size="14.00">chunga</text>
</g>
<!-- SYSTEM12947&#45;&gt;SYSTEM12949 -->
<g id="edge4" class="edge"><title>SYSTEM12947&#45;&gt;SYSTEM12949</title>
<path fill="none" stroke="#ff3030" d="M262.104,-176.088C279.771,-182.041 300.586,-189.054 318.395,-195.055"/>
<polygon fill="#ff3030" stroke="#ff3030" points="317.347,-198.395 327.941,-198.271 319.582,-191.761 317.347,-198.395"/>
</g>
<!-- SYSTEM12950 -->
<g id="node6" class="node"><title>SYSTEM12950</title>
<ellipse fill="none" stroke="black" cx="346.021" cy="-237.029" rx="57.9949" ry="18"/>
<text text-anchor="middle" x="346.021" y="-231.929" font-family="Times,serif" font-size="14.00">flexi&#45;streams</text>
</g>
<!-- SYSTEM12947&#45;&gt;SYSTEM12950 -->
<g id="edge6" class="edge"><title>SYSTEM12947&#45;&gt;SYSTEM12950</title>
<path fill="none" stroke="#ff3030" d="M249.407,-178.898C267.354,-189.696 291.181,-204.032 310.681,-215.765"/>
<polygon fill="#ff3030" stroke="#ff3030" points="308.927,-218.795 319.3,-220.951 312.536,-212.796 308.927,-218.795"/>
</g>
<!-- SYSTEM12951 -->
<g id="node8" class="node"><title>SYSTEM12951</title>
<ellipse fill="none" stroke="black" cx="327.177" cy="-261.818" rx="46.1459" ry="18"/>
<text text-anchor="middle" x="327.177" y="-256.718" font-family="Times,serif" font-size="14.00">cl&#45;base64</text>
</g>
<!-- SYSTEM12947&#45;&gt;SYSTEM12951 -->
<g id="edge8" class="edge"><title>SYSTEM12947&#45;&gt;SYSTEM12951</title>
<path fill="none" stroke="#ff3030" d="M240.843,-180.038C257.811,-196.111 283.259,-220.217 302.135,-238.097"/>
<polygon fill="#ff3030" stroke="#ff3030" points="299.857,-240.76 309.524,-245.096 304.671,-235.678 299.857,-240.76"/>
</g>
<!-- SYSTEM12952 -->
<g id="node10" class="node"><title>SYSTEM12952</title>
<ellipse fill="none" stroke="black" cx="303.444" cy="-281.976" rx="31.1972" ry="18"/>
<text text-anchor="middle" x="303.444" y="-276.876" font-family="Times,serif" font-size="14.00">cl+ssl</text>
</g>
<!-- SYSTEM12947&#45;&gt;SYSTEM12952 -->
<g id="edge10" class="edge"><title>SYSTEM12947&#45;&gt;SYSTEM12952</title>
<path fill="none" stroke="#ff3030" d="M234.732,-180.632C248.414,-200.812 270.799,-233.828 286.283,-256.665"/>
<polygon fill="#ff3030" stroke="#ff3030" points="283.539,-258.855 292.048,-265.168 289.333,-254.927 283.539,-258.855"/>
</g>
<!-- SYSTEM12953 -->
<g id="node12" class="node"><title>SYSTEM12953</title>
<ellipse fill="none" stroke="black" cx="275.933" cy="-296.561" rx="31.9972" ry="18"/>
<text text-anchor="middle" x="275.933" y="-291.461" font-family="Times,serif" font-size="14.00">cl&#45;fad</text>
</g>
<!-- SYSTEM12947&#45;&gt;SYSTEM12953 -->
<g id="edge12" class="edge"><title>SYSTEM12947&#45;&gt;SYSTEM12953</title>
<path fill="none" stroke="#ff3030" d="M229.822,-180.83C238.892,-203.596 254.577,-242.961 265.102,-269.377"/>
<polygon fill="#ff3030" stroke="#ff3030" points="261.906,-270.812 268.859,-278.806 268.409,-268.221 261.906,-270.812"/>
</g>
<!-- SYSTEM12954 -->
<g id="node14" class="node"><title>SYSTEM12954</title>
<ellipse fill="none" stroke="black" cx="245.93" cy="-304.892" rx="70.8437" ry="18"/>
<text text-anchor="middle" x="245.93" y="-299.792" font-family="Times,serif" font-size="14.00">trivial&#45;backtrace</text>
</g>
<!-- SYSTEM12947&#45;&gt;SYSTEM12954 -->
<g id="edge14" class="edge"><title>SYSTEM12947&#45;&gt;SYSTEM12954</title>
<path fill="none" stroke="#ff3030" d="M225.584,-180.786C229.536,-204.892 236.591,-247.925 241.266,-276.443"/>
<polygon fill="#ff3030" stroke="#ff3030" points="237.858,-277.29 242.93,-286.592 244.766,-276.157 237.858,-277.29"/>
</g>
<!-- SYSTEM12955 -->
<g id="node16" class="node"><title>SYSTEM12955</title>
<ellipse fill="none" stroke="black" cx="214.837" cy="-306.578" rx="41.0951" ry="18"/>
<text text-anchor="middle" x="214.837" y="-301.478" font-family="Times,serif" font-size="14.00">cl&#45;ppcre</text>
</g>
<!-- SYSTEM12947&#45;&gt;SYSTEM12955 -->
<g id="edge16" class="edge"><title>SYSTEM12947&#45;&gt;SYSTEM12955</title>
<path fill="none" stroke="#ff3030" d="M221.646,-181C220.316,-205.525 217.937,-249.414 216.372,-278.265"/>
<polygon fill="#ff3030" stroke="#ff3030" points="212.863,-278.34 215.817,-288.515 219.853,-278.719 212.863,-278.34"/>
</g>
<!-- SYSTEM12956 -->
<g id="node18" class="node"><title>SYSTEM12956</title>
<ellipse fill="none" stroke="black" cx="184.109" cy="-301.54" rx="76.1919" ry="18"/>
<text text-anchor="middle" x="184.109" y="-296.44" font-family="Times,serif" font-size="14.00">bordeaux&#45;threads</text>
</g>
<!-- SYSTEM12947&#45;&gt;SYSTEM12956 -->
<g id="edge18" class="edge"><title>SYSTEM12947&#45;&gt;SYSTEM12956</title>
<path fill="none" stroke="#ff3030" d="M217.597,-180.928C211.05,-204.507 199.55,-245.928 191.88,-273.551"/>
<polygon fill="#ff3030" stroke="#ff3030" points="188.45,-272.824 189.147,-283.396 195.195,-274.697 188.45,-272.824"/>
</g>
<!-- SYSTEM12957 -->
<g id="node20" class="node"><title>SYSTEM12957</title>
<ellipse fill="none" stroke="black" cx="155.183" cy="-290.015" rx="27.9475" ry="18"/>
<text text-anchor="middle" x="155.183" y="-284.915" font-family="Times,serif" font-size="14.00">md5</text>
</g>
<!-- SYSTEM12947&#45;&gt;SYSTEM12957 -->
<g id="edge20" class="edge"><title>SYSTEM12947&#45;&gt;SYSTEM12957</title>
<path fill="none" stroke="#ff3030" d="M213.112,-180.747C201.585,-202.491 182.083,-239.276 168.926,-264.092"/>
<polygon fill="#ff3030" stroke="#ff3030" points="165.816,-262.486 164.224,-272.961 172,-265.765 165.816,-262.486"/>
</g>
<!-- SYSTEM12958 -->
<g id="node22" class="node"><title>SYSTEM12958</title>
<ellipse fill="none" stroke="black" cx="129.41" cy="-272.54" rx="39.7989" ry="18"/>
<text text-anchor="middle" x="129.41" y="-267.44" font-family="Times,serif" font-size="14.00">rfc2388</text>
</g>
<!-- SYSTEM12947&#45;&gt;SYSTEM12958 -->
<g id="edge22" class="edge"><title>SYSTEM12947&#45;&gt;SYSTEM12958</title>
<path fill="none" stroke="#ff3030" d="M207.655,-180.422C192.116,-198.717 167.694,-227.468 150.27,-247.981"/>
<polygon fill="#ff3030" stroke="#ff3030" points="147.545,-245.784 143.738,-255.671 152.88,-250.316 147.545,-245.784"/>
</g>
<!-- SYSTEM12959 -->
<g id="node24" class="node"><title>SYSTEM12959</title>
<ellipse fill="none" stroke="black" cx="107.996" cy="-249.934" rx="29.8973" ry="18"/>
<text text-anchor="middle" x="107.996" y="-244.834" font-family="Times,serif" font-size="14.00">clack</text>
</g>
<!-- SYSTEM12959&#45;&gt;SYSTEM12947 -->
<g id="edge24" class="edge"><title>SYSTEM12959&#45;&gt;SYSTEM12947</title>
<a xlink:title="clack depends on hunchentoot">
<path fill="none" stroke="#8fbc8f" d="M126.67,-235.739C144.402,-222.259 171.371,-201.758 192.208,-185.918"/>
<polygon fill="#8fbc8f" stroke="#8fbc8f" points="194.589,-188.504 200.431,-179.666 190.352,-182.932 194.589,-188.504"/>
</a>
</g>
<!-- SYSTEM12960 -->
<g id="node26" class="node"><title>SYSTEM12960</title>
<ellipse fill="none" stroke="black" cx="91.9425" cy="-223.253" rx="50.0456" ry="18"/>
<text text-anchor="middle" x="91.9425" y="-218.153" font-family="Times,serif" font-size="14.00">cl&#45;webdav</text>
</g>
<!-- SYSTEM12960&#45;&gt;SYSTEM12947 -->
<g id="edge26" class="edge"><title>SYSTEM12960&#45;&gt;SYSTEM12947</title>
<a xlink:title="cl&#45;webdav depends on hunchentoot">
<path fill="none" stroke="#8fbc8f" d="M122.914,-208.924C140.22,-200.917 162.022,-190.831 180.824,-182.132"/>
<polygon fill="#8fbc8f" stroke="#8fbc8f" points="182.454,-185.234 190.06,-177.859 179.515,-178.881 182.454,-185.234"/>
</a>
</g>
<!-- SYSTEM12961 -->
<g id="node28" class="node"><title>SYSTEM12961</title>
<ellipse fill="none" stroke="black" cx="82" cy="-193.745" rx="81.2428" ry="18"/>
<text text-anchor="middle" x="82" y="-188.645" font-family="Times,serif" font-size="14.00">hunchentoot&#45;vhost</text>
</g>
<!-- SYSTEM12961&#45;&gt;SYSTEM12947 -->
<g id="edge28" class="edge"><title>SYSTEM12961&#45;&gt;SYSTEM12947</title>
<a xlink:title="hunchentoot&#45;vhost depends on hunchentoot">
<path fill="none" stroke="#8fbc8f" d="M139.607,-181.064C148.112,-179.192 156.874,-177.264 165.372,-175.393"/>
<polygon fill="#8fbc8f" stroke="#8fbc8f" points="166.182,-178.799 175.196,-173.231 164.677,-171.962 166.182,-178.799"/>
</a>
</g>
<!-- SYSTEM12962 -->
<g id="node30" class="node"><title>SYSTEM12962</title>
<ellipse fill="none" stroke="black" cx="78.6334" cy="-162.789" rx="44.996" ry="18"/>
<text text-anchor="middle" x="78.6334" y="-157.689" font-family="Times,serif" font-size="14.00">cl&#45;paypal</text>
</g>
<!-- SYSTEM12962&#45;&gt;SYSTEM12947 -->
<g id="edge30" class="edge"><title>SYSTEM12962&#45;&gt;SYSTEM12947</title>
<a xlink:title="cl&#45;paypal depends on hunchentoot">
<path fill="none" stroke="#8fbc8f" d="M123.801,-162.789C133.451,-162.789 143.852,-162.789 154.156,-162.789"/>
<polygon fill="#8fbc8f" stroke="#8fbc8f" points="154.397,-166.289 164.397,-162.789 154.397,-159.289 154.397,-166.289"/>
</a>
</g>
<!-- SYSTEM12963 -->
<g id="node32" class="node"><title>SYSTEM12963</title>
<ellipse fill="none" stroke="black" cx="82" cy="-131.833" rx="41.0951" ry="18"/>
<text text-anchor="middle" x="82" y="-126.733" font-family="Times,serif" font-size="14.00">cl&#45;oauth</text>
</g>
<!-- SYSTEM12963&#45;&gt;SYSTEM12947 -->
<g id="edge32" class="edge"><title>SYSTEM12963&#45;&gt;SYSTEM12947</title>
<a xlink:title="cl&#45;oauth depends on hunchentoot">
<path fill="none" stroke="#8fbc8f" d="M118.95,-139.966C133.036,-143.067 149.447,-146.679 165.002,-150.103"/>
<polygon fill="#8fbc8f" stroke="#8fbc8f" points="164.549,-153.587 175.067,-152.319 166.054,-146.751 164.549,-153.587"/>
</a>
</g>
<!-- SYSTEM12964 -->
<g id="node34" class="node"><title>SYSTEM12964</title>
<ellipse fill="none" stroke="black" cx="91.9425" cy="-102.325" rx="76.8441" ry="18"/>
<text text-anchor="middle" x="91.9425" y="-97.2248" font-family="Times,serif" font-size="14.00">hunchentoot&#45;auth</text>
</g>
<!-- SYSTEM12964&#45;&gt;SYSTEM12947 -->
<g id="edge34" class="edge"><title>SYSTEM12964&#45;&gt;SYSTEM12947</title>
<a xlink:title="hunchentoot&#45;auth depends on hunchentoot">
<path fill="none" stroke="#8fbc8f" d="M126.965,-118.528C143.552,-126.202 163.488,-135.425 180.859,-143.462"/>
<polygon fill="#8fbc8f" stroke="#8fbc8f" points="179.662,-146.764 190.207,-147.787 182.601,-140.411 179.662,-146.764"/>
</a>
</g>
<!-- SYSTEM12965 -->
<g id="node36" class="node"><title>SYSTEM12965</title>
<ellipse fill="none" stroke="black" cx="107.996" cy="-75.6437" rx="46.1459" ry="18"/>
<text text-anchor="middle" x="107.996" y="-70.5437" font-family="Times,serif" font-size="14.00">weblocks</text>
</g>
<!-- SYSTEM12965&#45;&gt;SYSTEM12947 -->
<g id="edge36" class="edge"><title>SYSTEM12965&#45;&gt;SYSTEM12947</title>
<a xlink:title="weblocks depends on hunchentoot">
<path fill="none" stroke="#8fbc8f" d="M129.29,-91.8308C147.08,-105.355 172.656,-124.797 192.54,-139.912"/>
<polygon fill="#8fbc8f" stroke="#8fbc8f" points="190.594,-142.83 200.673,-146.095 194.83,-137.257 190.594,-142.83"/>
</a>
</g>
<!-- SYSTEM12966 -->
<g id="node38" class="node"><title>SYSTEM12966</title>
<ellipse fill="none" stroke="black" cx="129.41" cy="-53.0375" rx="31.1972" ry="18"/>
<text text-anchor="middle" x="129.41" y="-47.9375" font-family="Times,serif" font-size="14.00">restas</text>
</g>
<!-- SYSTEM12966&#45;&gt;SYSTEM12947 -->
<g id="edge38" class="edge"><title>SYSTEM12966&#45;&gt;SYSTEM12947</title>
<a xlink:title="restas depends on hunchentoot">
<path fill="none" stroke="#8fbc8f" d="M143.165,-69.2317C158.367,-87.1292 183.057,-116.196 200.885,-137.185"/>
<polygon fill="#8fbc8f" stroke="#8fbc8f" points="198.443,-139.716 207.584,-145.072 203.778,-135.184 198.443,-139.716"/>
</a>
</g>
<!-- SYSTEM12967 -->
<g id="node40" class="node"><title>SYSTEM12967</title>
<ellipse fill="none" stroke="black" cx="155.183" cy="-35.5631" rx="27" ry="18"/>
<text text-anchor="middle" x="155.183" y="-30.4631" font-family="Times,serif" font-size="14.00">gtfl</text>
</g>
<!-- SYSTEM12967&#45;&gt;SYSTEM12947 -->
<g id="edge40" class="edge"><title>SYSTEM12967&#45;&gt;SYSTEM12947</title>
<a xlink:title="gtfl depends on hunchentoot">
<path fill="none" stroke="#8fbc8f" d="M164.279,-52.7213C175.567,-74.0119 194.948,-110.568 208.255,-135.669"/>
<polygon fill="#8fbc8f" stroke="#8fbc8f" points="205.252,-137.477 213.029,-144.672 211.437,-134.198 205.252,-137.477"/>
</a>
</g>
<!-- SYSTEM12968 -->
<g id="node42" class="node"><title>SYSTEM12968</title>
<ellipse fill="none" stroke="black" cx="184.109" cy="-24.0376" rx="44.846" ry="18"/>
<text text-anchor="middle" x="184.109" y="-18.9376" font-family="Times,serif" font-size="14.00">cxml&#45;rpc</text>
</g>
<!-- SYSTEM12968&#45;&gt;SYSTEM12947 -->
<g id="edge42" class="edge"><title>SYSTEM12968&#45;&gt;SYSTEM12947</title>
<a xlink:title="cxml&#45;rpc depends on hunchentoot">
<path fill="none" stroke="#8fbc8f" d="M189.146,-42.1769C195.692,-65.7561 207.193,-107.177 214.862,-134.8"/>
<polygon fill="#8fbc8f" stroke="#8fbc8f" points="211.548,-135.946 217.596,-144.645 218.293,-134.073 211.548,-135.946"/>
</a>
</g>
<!-- SYSTEM12969 -->
<g id="node44" class="node"><title>SYSTEM12969</title>
<ellipse fill="none" stroke="black" cx="214.837" cy="-19" rx="72.1436" ry="18"/>
<text text-anchor="middle" x="214.837" y="-13.9" font-family="Times,serif" font-size="14.00">hunchentoot&#45;cgi</text>
</g>
<!-- SYSTEM12969&#45;&gt;SYSTEM12947 -->
<g id="edge44" class="edge"><title>SYSTEM12969&#45;&gt;SYSTEM12947</title>
<a xlink:title="hunchentoot&#45;cgi depends on hunchentoot">
<path fill="none" stroke="#8fbc8f" d="M215.825,-37.211C217.154,-61.7362 219.534,-105.625 221.098,-134.476"/>
<polygon fill="#8fbc8f" stroke="#8fbc8f" points="217.618,-134.93 221.654,-144.726 224.607,-134.551 217.618,-134.93"/>
</a>
</g>
<!-- SYSTEM12970 -->
<g id="node46" class="node"><title>SYSTEM12970</title>
<ellipse fill="none" stroke="black" cx="245.93" cy="-20.6858" rx="50.0456" ry="18"/>
<text text-anchor="middle" x="245.93" y="-15.5858" font-family="Times,serif" font-size="14.00">rpc4cl&#45;test</text>
</g>
<!-- SYSTEM12970&#45;&gt;SYSTEM12947 -->
<g id="edge46" class="edge"><title>SYSTEM12970&#45;&gt;SYSTEM12947</title>
<a xlink:title="rpc4cl&#45;test depends on hunchentoot">
<path fill="none" stroke="#8fbc8f" d="M242.979,-38.6832C239.028,-62.7885 231.973,-105.822 227.297,-134.34"/>
<polygon fill="#8fbc8f" stroke="#8fbc8f" points="223.798,-134.054 225.634,-144.489 230.705,-135.187 223.798,-134.054"/>
</a>
</g>
<!-- SYSTEM12971 -->
<g id="node48" class="node"><title>SYSTEM12971</title>
<ellipse fill="none" stroke="black" cx="275.933" cy="-29.0162" rx="44.1961" ry="18"/>
<text text-anchor="middle" x="275.933" y="-23.9162" font-family="Times,serif" font-size="14.00">webfunk</text>
</g>
<!-- SYSTEM12971&#45;&gt;SYSTEM12947 -->
<g id="edge48" class="edge"><title>SYSTEM12971&#45;&gt;SYSTEM12947</title>
<a xlink:title="webfunk depends on hunchentoot">
<path fill="none" stroke="#8fbc8f" d="M268.745,-47.0573C259.725,-69.6965 244.164,-108.751 233.64,-135.163"/>
<polygon fill="#8fbc8f" stroke="#8fbc8f" points="230.328,-134.021 229.878,-144.606 236.831,-136.612 230.328,-134.021"/>
</a>
</g>
<!-- SYSTEM12972 -->
<g id="node50" class="node"><title>SYSTEM12972</title>
<ellipse fill="none" stroke="black" cx="303.444" cy="-43.6016" rx="53.9452" ry="18"/>
<text text-anchor="middle" x="303.444" y="-38.5016" font-family="Times,serif" font-size="14.00">amazon&#45;ecs</text>
</g>
<!-- SYSTEM12972&#45;&gt;SYSTEM12947 -->
<g id="edge50" class="edge"><title>SYSTEM12972&#45;&gt;SYSTEM12947</title>
<a xlink:title="amazon&#45;ecs depends on hunchentoot">
<path fill="none" stroke="#8fbc8f" d="M291.52,-61.1881C278.032,-81.0816 255.928,-113.682 240.405,-136.578"/>
<polygon fill="#8fbc8f" stroke="#8fbc8f" points="237.321,-134.889 234.606,-145.13 243.115,-138.817 237.321,-134.889"/>
</a>
</g>
<!-- SYSTEM12973 -->
<g id="node52" class="node"><title>SYSTEM12973</title>
<ellipse fill="none" stroke="black" cx="327.177" cy="-63.7601" rx="57.8449" ry="18"/>
<text text-anchor="middle" x="327.177" y="-58.6601" font-family="Times,serif" font-size="14.00">hh&#45;web&#45;tags</text>
</g>
<!-- SYSTEM12973&#45;&gt;SYSTEM12947 -->
<g id="edge52" class="edge"><title>SYSTEM12973&#45;&gt;SYSTEM12947</title>
<a xlink:title="hh&#45;web&#45;tags depends on hunchentoot">
<path fill="none" stroke="#8fbc8f" d="M308.967,-81.0096C292.279,-96.8167 267.389,-120.394 248.615,-138.178"/>
<polygon fill="#8fbc8f" stroke="#8fbc8f" points="245.839,-135.987 240.986,-145.405 250.652,-141.069 245.839,-135.987"/>
</a>
</g>
<!-- SYSTEM12974 -->
<g id="node54" class="node"><title>SYSTEM12974</title>
<ellipse fill="none" stroke="black" cx="346.021" cy="-88.5491" rx="72.9439" ry="18"/>
<text text-anchor="middle" x="346.021" y="-83.4491" font-family="Times,serif" font-size="14.00">hunchentoot&#45;test</text>
</g>
<!-- SYSTEM12974&#45;&gt;SYSTEM12947 -->
<g id="edge54" class="edge"><title>SYSTEM12974&#45;&gt;SYSTEM12947</title>
<a xlink:title="hunchentoot&#45;test depends on hunchentoot">
<path fill="none" stroke="#8fbc8f" d="M318.33,-105.21C300.542,-115.913 277.27,-129.915 258.129,-141.432"/>
<polygon fill="#8fbc8f" stroke="#8fbc8f" points="256.148,-138.539 249.384,-146.693 259.757,-144.537 256.148,-138.539"/>
</a>
</g>
<!-- SYSTEM12975 -->
<g id="node56" class="node"><title>SYSTEM12975</title>
<ellipse fill="none" stroke="black" cx="359.095" cy="-116.809" rx="63.8455" ry="18"/>
<text text-anchor="middle" x="359.095" y="-111.709" font-family="Times,serif" font-size="14.00">ht&#45;simple&#45;ajax</text>
</g>
<!-- SYSTEM12975&#45;&gt;SYSTEM12947 -->
<g id="edge56" class="edge"><title>SYSTEM12975&#45;&gt;SYSTEM12947</title>
<a xlink:title="ht&#45;simple&#45;ajax depends on hunchentoot">
<path fill="none" stroke="#8fbc8f" d="M317.782,-130.73C303.239,-135.63 286.753,-141.185 271.637,-146.277"/>
<polygon fill="#8fbc8f" stroke="#8fbc8f" points="270.295,-143.036 261.936,-149.546 272.531,-149.67 270.295,-143.036"/>
</a>
</g>
<!-- SYSTEM12976 -->
<g id="node58" class="node"><title>SYSTEM12976</title>
<ellipse fill="none" stroke="black" cx="365.789" cy="-147.22" rx="44.1961" ry="18"/>
<text text-anchor="middle" x="365.789" y="-142.12" font-family="Times,serif" font-size="14.00">nuclblog</text>
</g>
<!-- SYSTEM12976&#45;&gt;SYSTEM12947 -->
<g id="edge58" class="edge"><title>SYSTEM12976&#45;&gt;SYSTEM12947</title>
<a xlink:title="nuclblog depends on hunchentoot">
<path fill="none" stroke="#8fbc8f" d="M323.225,-151.849C312.022,-153.067 299.676,-154.41 287.585,-155.725"/>
<polygon fill="#8fbc8f" stroke="#8fbc8f" points="287.082,-152.259 277.519,-156.82 287.839,-159.218 287.082,-152.259"/>
</a>
</g>
</g>
</svg>
